name analog
datacolumns 19
datarows 52
range 0.159 0.1845
endheader
time	ground_force_vx	ground_force_vy	ground_force_vz	ground_force_px	ground_force_py	ground_force_pz	l_ground_force_vx	l_ground_force_vy	l_ground_force_vz	l_ground_force_px	l_ground_force_py	l_ground_force_pz	ground_torque_x	ground_torque_y	ground_torque_z	l_ground_torque_x	l_ground_torque_y	l_ground_torque_z
0.159	-0.0	-0.0	-0.0	-6.066314697265625	2.696784019470215	-78.22468566894531	6.213502883911133	-4.064663410186768	-421.4333801269531	-0.0	-0.0	-0.0	-0.0	-0.0	-0.0	139326.25	-36878.63671875	1129.993408203125
0.1595	-0.0	-0.0	-0.0	-6.174241542816162	2.4313628673553467	-77.34640502929688	6.296900272369385	-4.061239242553711	-423.9527587890625	-0.0	-0.0	-0.0	-0.0	-0.0	-0.0	139590.640625	-36643.20703125	1033.6177978515625
0.16	-0.0	-0.0	-0.0	-5.996255397796631	2.2264609336853027	-74.34081268310547	6.077347755432129	-3.4445457458496094	-425.2718811035156	-0.0	-0.0	-0.0	-0.0	-0.0	-0.0	140085.703125	-36567.36328125	960.2227783203124
0.1605	-0.0	-0.0	-0.0	-5.084999084472656	2.093808174133301	-73.99419403076172	6.054769515991211	-3.311548948287964	-426.8358459472656	-0.0	-0.0	-0.0	-0.0	-0.0	-0.0	140691.1875	-37077.1953125	878.7269287109375
0.161	-0.0	-0.0	-0.0	-4.373722553253174	1.7386441230773926	-71.33757781982422	6.253747940063477	-2.936155080795288	-429.45648193359375	-0.0	-0.0	-0.0	-0.0	-0.0	-0.0	141463.796875	-37269.56640625	849.2481079101562
0.1615	-0.0	-0.0	-0.0	-4.682116985321045	1.4251306056976318	-67.44979095458984	6.276647090911865	-3.069059371948242	-431.4655456542969	-0.0	-0.0	-0.0	-0.0	-0.0	-0.0	142281.40625	-37427.44921875	804.6134643554688
0.162	-0.0	-0.0	-0.0	-4.104330062866211	1.1150987148284912	-65.68634796142578	6.165314197540283	-3.0252296924591064	-433.2985229492188	-0.0	-0.0	-0.0	-0.0	-0.0	-0.0	142989.9375	-37230.28125	849.0130004882812
0.1625	-0.0	-0.0	-0.0	-3.7244486808776855	1.2698379755020142	-63.30643081665039	5.943622589111328	-3.312119722366333	-435.304443359375	-0.0	-0.0	-0.0	-0.0	-0.0	-0.0	143667.375	-37619.9375	893.3070068359375
0.163	-0.0	-0.0	-0.0	-3.0331573486328125	0.713043212890625	-61.27649688720703	5.721665382385254	-3.79819130897522	-437.747802734375	-0.0	-0.0	-0.0	-0.0	-0.0	-0.0	143861.015625	-37573.140625	715.0414428710938
0.1635	-0.0	-0.0	-0.0	-2.497894287109375	0.3565216064453125	-58.89373016357422	5.611458778381348	-3.820412397384644	-437.1378173828125	-0.0	-0.0	-0.0	-0.0	-0.0	-0.0	144455.921875	-37652.6171875	729.9013061523438
0.164	-0.0	-0.0	-0.0	-2.542722463607788	0.4013095498085022	-57.216915130615234	5.389409065246582	-3.974475860595703	-439.2327270507813	-0.0	-0.0	-0.0	-0.0	-0.0	-0.0	144350.1875	-37590.6796875	655.1260986328125
0.1645	-0.0	-0.0	-0.0	-1.984018087387085	0.2673912048339844	-56.33364868164063	4.967803955078125	-4.439061164855957	-438.9649658203125	-0.0	-0.0	-0.0	-0.0	-0.0	-0.0	145003.171875	-37745.3046875	624.9488525390625
0.165	-0.0	-0.0	-0.0	-1.5585767030715942	0.2443271279335022	-54.74288940429688	4.7234721183776855	-4.504405975341797	-440.9725341796875	-0.0	-0.0	-0.0	-0.0	-0.0	-0.0	145222.5	-37699.04296875	306.1454467773437
0.1655	-0.0	-0.0	-0.0	-1.9613404273986816	-0.065880574285984	-55.6181755065918	4.991298675537109	-4.924371242523193	-441.6629943847656	-0.0	-0.0	-0.0	-0.0	-0.0	-0.0	145246.171875	-37611.390625	461.7980651855469
0.166	-0.0	-0.0	-0.0	-2.6325106620788574	-0.5582647919654846	-55.62900924682617	4.54591178894043	-5.055902481079102	-440.978515625	-0.0	-0.0	-0.0	-0.0	-0.0	-0.0	145682.765625	-37767.83984375	372.4041748046875
0.1665	-0.0	-0.0	-0.0	-2.900284767150879	-0.1545645594596862	-56.5087890625	4.723262310028076	-4.879188537597656	-442.2808837890625	-0.0	-0.0	-0.0	-0.0	-0.0	-0.0	145525.875	-37817.3203125	334.8587951660156
0.167	-0.0	-0.0	-0.0	-2.859004020690918	-0.4912832081317901	-57.30978012084961	4.833440780639648	-5.170692920684815	-442.0259399414063	-0.0	-0.0	-0.0	-0.0	-0.0	-0.0	145904.015625	-37867.84375	411.0890197753906
0.1675	-0.0	-0.0	-0.0	-2.603908061981201	-0.7154852151870728	-58.3702392578125	4.499895095825195	-4.991620063781738	-444.3011779785156	-0.0	-0.0	-0.0	-0.0	-0.0	-0.0	145745.609375	-37827.4375	440.6903381347656
0.168	-0.0	-0.0	-0.0	-2.6060433387756348	-0.6023024320602417	-58.981048583984375	4.655742168426514	-4.659752368927002	-443.8682861328125	-0.0	-0.0	-0.0	-0.0	-0.0	-0.0	146207.203125	-37774.69921875	238.38714599609372
0.1685	-0.0	-0.0	-0.0	-2.473358154296875	-0.6023740172386169	-56.67948532104492	4.722990989685059	-4.355824947357178	-442.2911987304688	-0.0	-0.0	-0.0	-0.0	-0.0	-0.0	145510.671875	-37743.28125	165.97886657714844
0.169	-0.0	-0.0	-0.0	-2.63006591796875	-0.6057368516921997	-56.49576950073242	4.769140243530273	-4.172268390655518	-442.9062194824219	-0.0	-0.0	-0.0	-0.0	-0.0	-0.0	145852.25	-37873.2578125	173.21310424804688
0.1695	-0.0	-0.0	-0.0	-1.9056414365768437	-0.9376368522644044	-57.58233642578125	4.6804914474487305	-3.7556581497192383	-442.7085571289063	-0.0	-0.0	-0.0	-0.0	-0.0	-0.0	145971.109375	-37673.3828125	106.86612701416016
0.17	-0.0	-0.0	-0.0	-1.9916691780090328	-1.2768374681472778	-56.79272079467773	4.5707550048828125	-3.532867431640625	-442.9734191894531	-0.0	-0.0	-0.0	-0.0	-0.0	-0.0	146606.34375	-37737.546875	-48.48056411743164
0.1705	-0.0	-0.0	-0.0	-1.6311933994293213	-1.2265759706497192	-55.95446014404297	4.185854434967041	-3.2979695796966557	-444.2684020996094	-0.0	-0.0	-0.0	-0.0	-0.0	-0.0	146785.515625	-38154.921875	-235.1730194091797
0.171	-0.0	-0.0	-0.0	-1.138530135154724	-1.2989616394042969	-58.1241340637207	4.346828460693359	-2.644840240478516	-446.6664733886719	-0.0	-0.0	-0.0	-0.0	-0.0	-0.0	147464.921875	-38128.69921875	-316.8726501464844
0.1715	-0.0	-0.0	-0.0	-1.6621315479278564	-1.6512577533721924	-55.9697265625	3.7258529663085938	-2.4522061347961426	-446.9140625	-0.0	-0.0	-0.0	-0.0	-0.0	-0.0	147834.828125	-38409.4609375	-582.5487060546875
0.17200000000000001	-0.0	-0.0	-0.0	-0.5873382091522217	-1.583308458328247	-55.449249267578125	3.0578103065490723	-2.025998830795288	-447.7762756347656	-0.0	-0.0	-0.0	-0.0	-0.0	-0.0	148320.375	-38169.02734375	-863.7459716796875
0.17250000000000001	-0.0	-0.0	-0.0	-0.3620685338973999	-1.4890178442001345	-55.69861602783203	2.300811529159546	-1.875424861907959	-448.8232727050781	-0.0	-0.0	-0.0	-0.0	-0.0	-0.0	148961.515625	-38084.375	-1314.7911376953125
0.17300000000000001	-0.0	-0.0	-0.0	-0.1365841627120971	-1.6197150945663452	-54.014610290527344	1.460739254951477	-1.630975604057312	-449.7886962890625	-0.0	-0.0	-0.0	-0.0	-0.0	-0.0	149212.75	-38243.2578125	-1480.5784912109375
0.17350000000000002	-0.0	-0.0	-0.0	0.2201330065727234	-1.7559894323349	-53.84848403930664	1.078925371170044	-1.4604068994522097	-451.18505859375	-0.0	-0.0	-0.0	-0.0	-0.0	-0.0	149545.109375	-38188.27734375	-1863.624267578125
0.17400000000000002	-0.0	-0.0	-0.0	0.5144846439361572	-1.3992352485656738	-53.73162460327149	0.4575641751289367	-1.3517847061157229	-453.4119567871094	-0.0	-0.0	-0.0	-0.0	-0.0	-0.0	150291.59375	-38007.04296875	-1889.4617919921875
0.17450000000000002	-0.0	-0.0	-0.0	0.5830592513084412	-1.6457242965698242	-52.78776550292969	0.2593149244785309	-0.9239839315414428	-453.4673767089844	-0.0	-0.0	-0.0	-0.0	-0.0	-0.0	150516.90625	-38264.1484375	-2115.32275390625
0.17500000000000002	-0.0	-0.0	-0.0	1.0019609928131104	-1.6522239446640017	-51.59051513671875	0.3823181986808777	-1.168504238128662	-453.5757446289063	-0.0	-0.0	-0.0	-0.0	-0.0	-0.0	150977.59375	-38149.73046875	-2297.806884765625
0.17550000000000002	-0.0	-0.0	-0.0	1.6813713312149048	-1.9267034530639648	-50.17902374267578	-0.1034542471170425	-1.0120296478271484	-452.84967041015625	-0.0	-0.0	-0.0	-0.0	-0.0	-0.0	151029.1875	-38011.671875	-2439.58154296875
0.176	-0.0	-0.0	-0.0	1.4960722923278809	-1.721144199371338	-47.51692199707031	-0.1571478694677353	-0.5223475694656372	-453.9270935058594	-0.0	-0.0	-0.0	-0.0	-0.0	-0.0	151317.859375	-38054.37109375	-2590.342041015625
0.1765	-0.0	-0.0	-0.0	1.9068186283111568	-2.4752347469329834	-46.31789016723633	-0.5726696252822876	-0.4695885181427002	-455.4043273925781	-0.0	-0.0	-0.0	-0.0	-0.0	-0.0	151727.171875	-38032.046875	-2770.151123046875
0.177	-0.0	-0.0	-0.0	2.278759002685547	-2.256373882293701	-45.28762435913086	-0.649310290813446	0.0363840162754058	-455.7689514160156	-0.0	-0.0	-0.0	-0.0	-0.0	-0.0	152014.59375	-37901.21875	-2888.57861328125
0.1775	-0.0	-0.0	-0.0	3.0086207389831543	-1.9811463356018064	-44.7417221069336	-0.4351002275943756	-0.2534054219722748	-457.4219055175781	-0.0	-0.0	-0.0	-0.0	-0.0	-0.0	153030.71875	-37757.22265625	-3036.697509765625
0.178	-0.0	-0.0	-0.0	3.260352611541748	-2.633512020111084	-40.4225959777832	-0.7209110856056213	0.7948951721191406	-459.7540283203125	-0.0	-0.0	-0.0	-0.0	-0.0	-0.0	153964.453125	-37819.41796875	-3224.07763671875
0.1785	-0.0	-0.0	-0.0	3.56842041015625	-2.4870359897613525	-38.30295181274414	-1.0645294189453125	0.854381799697876	-462.6614990234375	-0.0	-0.0	-0.0	-0.0	-0.0	-0.0	154784.84375	-38044.15625	-3368.921142578125
0.179	-0.0	-0.0	-0.0	4.141510009765625	-2.693979024887085	-37.71073913574219	-0.8871078491210938	1.344592809677124	-463.09478759765625	-0.0	-0.0	-0.0	-0.0	-0.0	-0.0	155586.4375	-38364.15625	-3451.4892578125
0.1795	-0.0	-0.0	-0.0	4.302111625671387	-2.8413562774658203	-35.78672790527344	-1.13346266746521	1.1284911632537842	-465.1878662109375	-0.0	-0.0	-0.0	-0.0	-0.0	-0.0	156420.875	-38473.796875	-3728.172119140625
0.18	-0.0	-0.0	-0.0	4.480471611022949	-3.019923686981201	-34.2168083190918	-1.1729567050933838	1.73700213432312	-467.9019470214844	-0.0	-0.0	-0.0	-0.0	-0.0	-0.0	157225.53125	-38294.4375	-3939.1171875
0.1805	-0.0	-0.0	-0.0	5.540764331817627	-3.367098808288574	-31.86487579345703	-1.2419509887695312	2.345567226409912	-468.1724548339844	-0.0	-0.0	-0.0	-0.0	-0.0	-0.0	157610.3125	-38589.0	-3915.940673828125
0.181	-0.0	-0.0	-0.0	5.4616379737854	-2.901745080947876	-29.7454891204834	-1.0645294189453125	2.550936460494995	-470.230224609375	-0.0	-0.0	-0.0	-0.0	-0.0	-0.0	158326.78125	-38636.79296875	-4020.89453125
0.1815	-0.0	-0.0	-0.0	5.997648239135742	-3.614912748336792	-25.269493103027344	-1.114227533340454	3.3650062084198	-470.9634704589844	-0.0	-0.0	-0.0	-0.0	-0.0	-0.0	158883.140625	-39053.5234375	-4047.292236328125
0.182	-0.0	-0.0	-0.0	6.264392852783203	-3.406594753265381	-24.213773727416992	-0.3354139924049377	3.75914454460144	-472.6748046875	-0.0	-0.0	-0.0	-0.0	-0.0	-0.0	159580.46875	-39339.26171875	-3894.59033203125
0.1825	-0.0	-0.0	-0.0	6.63203239440918	-3.554356813430786	-21.311363220214844	-0.0499947853386402	4.2860307693481445	-473.4495849609375	-0.0	-0.0	-0.0	-0.0	-0.0	-0.0	160463.796875	-39432.22265625	-3848.798828125
0.183	-0.0	-0.0	-0.0	-0.0	-0.0	-0.0	0.9642945528030396	5.310774803161621	-477.1837158203125	-0.0	-0.0	-0.0	-0.0	-0.0	-0.0	161538.03125	-39810.00390625	-3653.0947265625
0.1835	-0.0	-0.0	-0.0	-0.0	-0.0	-0.0	1.0719163417816162	6.201653003692627	-479.262939453125	-0.0	-0.0	-0.0	-0.0	-0.0	-0.0	162443.03125	-40231.24609375	-3510.872802734375
0.184	-0.0	-0.0	-0.0	-0.0	-0.0	-0.0	2.275242567062378	6.063095569610596	-482.9718017578125	-0.0	-0.0	-0.0	-0.0	-0.0	-0.0	163282.890625	-40472.07421875	-3200.55810546875
0.1845	-0.0	-0.0	-0.0	-0.0	-0.0	-0.0	2.718583106994629	6.182518005371094	-483.999267578125	-0.0	-0.0	-0.0	-0.0	-0.0	-0.0	164238.828125	-40546.71484375	-3098.45556640625
